<svg width="40" height="40" viewBox="0 0 40 40" fill="none" xmlns="http://www.w3.org/2000/svg">
    <defs>
        <g id="robot-shape">
            <rect x="2.5" y="4.5" width="11" height="9" rx="1.5" fill-opacity="0%"/>
            <circle cx="6" cy="8" r="1.25"/>
            <circle cx="10" cy="8" r="1.25" />
            <path d="M 6.5,4
                     a 1.5 1.5 180 1 1 3,0"/>
            <line x1="6" y1="11.25" x2="10" y2="11.25" stroke-linecap="round"/>
        </g>
        <path id="automation-arrow-shape"
              d="M 0,0
                 a 12 12 90 0 1 12,12
                 h 3
                 l -5, 5
                 l -5,-5
                 h 3
                 a 9 9 90 0 0 -9,-9
                 z"/>
        <g id="changelist-shape">
            <rect x="2.5" y="2.5" width="11" height="11" rx="1.5" fill-opacity="0%"/>
            <rect x="5" y="5" width="6" height="1" rx="0.5" stroke-opacity="0%"/>
            <rect x="5" y="7.5" width="6" height="1" rx="0.5" stroke-opacity="0%"/>
            <rect x="5" y="10" width="6" height="1" rx="0.5" stroke-opacity="0%"/>
        </g>
    </defs>

    <mask id="automation-arrows-mask">
        <rect x="0" y="0" width="100%" height="100%" fill="white"/>
        <rect x="2.5" y="2.5" width="11" height="11" rx="1.5" fill="black" stroke="black" stroke-width="3.6" transform="scale(1.5) translate(-1.3,-1.3)"/>
        <rect x="2.5" y="2.5" width="11" height="11" rx="1.5" fill="black" stroke="black" stroke-width="3.6" transform="translate(18,18) scale(1.5)"/>
    </mask>

    <style type="text/css">
        #robot {
            stroke: #AFB1B3;
        }
        #automation-arrows {
            fill: #3592C4;
        }
        #changelist {
            fill: #CED0D6;
            stroke: #CED0D6;
        }
    </style>

    <use id="robot" href="#robot-shape" transform="scale(1.5) translate(-1.3,-1.3)"/>
    <g id="automation-arrows" mask="url(#automation-arrows-mask)">
        <use href="#automation-arrow-shape" transform="rotate(-31.6 20,20) translate(20,8)"/>
        <use href="#automation-arrow-shape" transform="rotate(-211.6 20,20) translate(20,8)"/>
    </g>
    <use id="changelist" href="#changelist-shape" transform="translate(18,18) scale(1.5)"/>
</svg>
